<?xml version="1.0" encoding="utf-8"?>
<!-- Generator: Adobe Illustrator 24.1.3, SVG Export Plug-In . SVG Version: 6.00 Build 0)  -->
<svg version="1.1" id="colour" xmlns="http://www.w3.org/2000/svg" xmlns:xlink="http://www.w3.org/1999/xlink" x="0px" y="0px"
	 viewBox="0 0 2500 2500" style="enable-background:new 0 0 2500 2500;" xml:space="preserve">
<style type="text/css">
	.st0{fill:#4A8BFF;}
	.st1{fill:#5A46FF;}
</style>
<path class="st0" d="M495.63,1803.29v-520.47c0-22.96,18.61-41.57,41.57-41.57l1412.51,0c22.96,0,41.57,18.61,41.57,41.57v520.47
	c0,22.96-18.61,41.57-41.57,41.57l-1412.51,0C514.24,1844.85,495.63,1826.24,495.63,1803.29z"/>
<path class="st0" d="M1503.69,2290.87H983.22c-22.96,0-41.57-18.61-41.57-41.57V836.8c0-22.96,18.61-41.57,41.57-41.57h520.47
	c22.96,0,41.57,18.61,41.57,41.57v1412.51C1545.25,2272.26,1526.64,2290.87,1503.69,2290.87z"/>
<path class="st1" d="M224.29,749.3c-14.97-38.69-3.7-86.57,24.96-106.19c159.21-108.98,682.18-424.76,1003.78-424.76
	s844.5,314.44,1005.47,424.07c29.16,19.86,40.28,68.86,24.45,107.72l-61.09,149.97c-15.21,37.34-49.59,51.08-77.15,30.81
	c-141.12-103.8-564.27-336.96-891.67-336.96S502.06,826.06,359.46,930.33c-27.98,20.46-62.81,5.94-77.63-32.36L224.29,749.3z"/>
</svg>
