<?xml version="1.0" encoding="utf-8"?>
<!-- Generator: Adobe Illustrator 24.1.3, SVG Export Plug-In . SVG Version: 6.00 Build 0)  -->
<svg version="1.1" id="colour_1_" xmlns="http://www.w3.org/2000/svg" xmlns:xlink="http://www.w3.org/1999/xlink" x="0px" y="0px"
	 viewBox="0 0 2500 2500" style="enable-background:new 0 0 2500 2500;" xml:space="preserve">
<style type="text/css">
	.st0{enable-background:new    ;}
	.st1{fill:#224E73;}
	.st2{fill:url(#SVGID_1_);}
	.st3{fill:#5A46FF;}
</style>
<g>
	<g class="st0">
		<path class="st1" d="M323.03,1777.16c1.83,8.72,4.89,15.22,9.17,19.5c4.29,4.29,10.56,6.43,18.84,6.43c4.32,0,8.2-0.73,11.65-2.2
			c3.44-1.46,6.21-3.83,8.29-7.09c2.09-3.26,3.13-7.34,3.13-12.25c0-4.54-0.84-8.48-2.53-11.81c-1.69-3.33-4.39-6.5-8.13-9.5
			c-3.74-3-8.94-6.19-15.6-9.56c-5.71-2.86-10.88-5.82-15.49-8.9s-8.55-6.46-11.81-10.16c-3.26-3.7-5.79-7.75-7.58-12.14
			c-1.8-4.39-2.69-9.34-2.69-14.83c0-9.01,2.23-16.66,6.7-22.96c4.47-6.3,10.93-11.08,19.39-14.34c8.46-3.26,18.25-4.89,29.39-4.89
			c6.52,0,12.74,0.35,18.68,1.04c5.93,0.7,12.71,1.92,20.32,3.68v31.86h-15.05c-1.39-5.79-3.17-10.38-5.33-13.79
			c-2.16-3.41-4.85-5.91-8.08-7.53c-3.22-1.61-7.29-2.42-12.2-2.42c-4.17,0-7.91,0.73-11.21,2.2c-3.3,1.47-5.9,3.64-7.8,6.54
			c-1.91,2.89-2.86,6.39-2.86,10.49c0,4.25,0.82,7.93,2.47,11.04c1.65,3.11,4.41,6.15,8.29,9.12c3.88,2.97,9.52,6.36,16.92,10.16
			c9.01,4.69,16.09,9.28,21.26,13.79c5.16,4.5,8.97,9.41,11.43,14.72c2.45,5.31,3.68,11.48,3.68,18.51c0,9.01-2.09,16.83-6.26,23.46
			c-4.17,6.63-10.25,11.72-18.24,15.27c-7.98,3.55-17.21,5.33-27.69,5.33c-7.47,0-15.25-0.42-23.35-1.26
			c-8.09-0.84-15.69-2.07-22.8-3.68v-33.84H323.03z"/>
		<path class="st1" d="M463.91,1814.19v-7.25c3.08-0.51,5.51-1.19,7.31-2.03c1.79-0.84,3.13-2.03,4.01-3.57
			c0.88-1.54,1.43-3.5,1.65-5.88c0.22-2.38,0.33-5.33,0.33-8.84v-109.53h-8.9c-4.39,0-7.76,0.51-10.11,1.54
			c-2.34,1.03-4.38,2.64-6.1,4.83c-1.72,2.2-3.21,5.15-4.45,8.84c-1.25,3.7-2.27,7.2-3.08,10.49h-15.05v-38.56h129.31v38.56h-15.05
			c-1.39-4.98-2.49-8.64-3.3-10.99c-0.81-2.34-1.7-4.34-2.69-5.99c-0.99-1.65-2.03-3.02-3.13-4.12s-2.27-1.98-3.52-2.64
			c-1.25-0.66-2.8-1.15-4.67-1.48c-1.87-0.33-4.3-0.49-7.31-0.49h-7.91v109.53c0,3.88,0.11,6.83,0.33,8.84
			c0.22,2.01,0.62,3.64,1.21,4.89c0.58,1.25,1.3,2.25,2.14,3.02c0.84,0.77,2.01,1.47,3.52,2.09c1.5,0.62,3.53,1.12,6.1,1.48v7.25
			H463.91z"/>
		<path class="st1" d="M640.49,1767.71h-46.91l-3.63,10.44c-1.03,2.93-1.87,5.77-2.53,8.51c-0.66,2.75-0.99,5.66-0.99,8.73
			c0,7.18,3.81,11.02,11.43,11.54v7.25h-46.91v-7.25c2.71-0.29,5.09-1.24,7.14-2.86c2.05-1.61,3.92-3.81,5.6-6.59
			c1.68-2.78,3.48-6.77,5.38-11.97l45.81-122.06h29.33l36.26,123.05c1.61,5.49,2.97,9.39,4.06,11.7c1.1,2.31,2.53,4.17,4.29,5.6
			c1.76,1.43,4.21,2.47,7.36,3.13v7.25h-60.64v-7.25c3.81-0.44,6.63-1.5,8.46-3.19c1.83-1.68,2.75-4.06,2.75-7.14
			c0-2.27-0.26-4.8-0.77-7.58c-0.51-2.78-1.36-6.3-2.53-10.55L640.49,1767.71z M597.76,1754.86h39.55l-17.58-61.85L597.76,1754.86z"
			/>
		<path class="st1" d="M777.53,1814.19h-57.68v-7.25c2.71-0.73,4.85-1.52,6.43-2.36c1.57-0.84,2.75-2.01,3.52-3.52
			c0.77-1.5,1.26-3.41,1.48-5.71c0.22-2.31,0.33-5.22,0.33-8.73v-94.7c0-3.44-0.09-6.33-0.28-8.68c-0.18-2.34-0.66-4.25-1.43-5.71
			c-0.77-1.46-1.94-2.65-3.52-3.57c-1.58-0.92-3.75-1.74-6.54-2.47v-7.25h64.05c8.64,0,15.98,0.6,22.03,1.81
			c6.04,1.21,11.33,3.06,15.88,5.55c3.81,2.05,7.03,4.63,9.67,7.75c2.64,3.11,4.67,6.74,6.1,10.88c1.43,4.14,2.14,8.95,2.14,14.45
			c0,7.18-1.26,13.33-3.79,18.46c-2.53,5.13-5.93,9.39-10.22,12.8c-4.29,3.41-10.02,6.61-17.19,9.61v1.1
			c5.42,2.35,9.9,5.48,13.46,9.39c3.55,3.92,6.76,8.88,9.61,14.89l6.92,14.94c3.08,6.67,6.13,11.66,9.17,15
			c3.04,3.33,6.65,5.37,10.82,6.1v7.25h-42.3c-4.25-5.86-9.05-14.57-14.39-26.15l-8.57-18.79c-2.56-5.57-4.76-9.52-6.59-11.87
			c-1.83-2.34-3.72-3.96-5.66-4.83c-1.94-0.88-4.93-1.32-8.95-1.32h-6.37v35.38c0,5.49,0.26,9.34,0.77,11.54
			c0.51,2.2,1.5,3.96,2.97,5.27c1.46,1.32,4.17,2.49,8.13,3.52V1814.19z M765.66,1677.3v61.08h10.88c5.86,0,10.69-0.79,14.5-2.36
			c3.81-1.57,6.83-3.77,9.06-6.59c2.23-2.82,3.77-6.13,4.61-9.94c0.84-3.81,1.26-7.98,1.26-12.52c0-9.96-2.34-17.43-7.03-22.41
			c-4.69-4.98-11.65-7.47-20.87-7.47C771.78,1677.08,767.64,1677.15,765.66,1677.3z"/>
		<path class="st1" d="M1069.39,1786.61c0,5.64,0.24,9.5,0.71,11.59c0.48,2.09,1.45,3.83,2.91,5.22c1.46,1.39,4.14,2.56,8.02,3.52
			v7.25h-57.35v-7.25c4.25-1.1,6.99-2.2,8.24-3.3c1.24-1.1,2.12-2.65,2.64-4.67c0.51-2.01,0.77-6.13,0.77-12.36v-44.05h-49.66v44.05
			c0,2.57,0.07,4.94,0.22,7.14c0.15,2.2,0.44,3.99,0.88,5.38c0.44,1.39,1.08,2.56,1.92,3.52c0.84,0.95,2,1.78,3.46,2.47
			c1.46,0.7,3.26,1.3,5.38,1.81v7.25h-57.68v-7.25c2.71-0.73,4.85-1.52,6.43-2.36c1.57-0.84,2.75-2.01,3.52-3.52
			c0.77-1.5,1.26-3.41,1.48-5.71c0.22-2.31,0.33-5.22,0.33-8.73v-94.7c0-3.44-0.09-6.33-0.28-8.68c-0.18-2.34-0.66-4.25-1.43-5.71
			c-0.77-1.46-1.94-2.65-3.52-3.57c-1.58-0.92-3.75-1.74-6.54-2.47v-7.25h57.68v7.25c-3.88,1.1-6.54,2.31-7.96,3.63
			c-1.43,1.32-2.44,3.06-3.02,5.22c-0.59,2.16-0.88,6.06-0.88,11.7v36.69h49.66v-36.69c0-5.57-0.24-9.43-0.71-11.59
			c-0.48-2.16-1.43-3.92-2.86-5.27c-1.43-1.35-4.12-2.58-8.07-3.68v-7.25h57.35v7.25c-3.22,0.88-5.57,1.81-7.03,2.8
			c-1.47,0.99-2.51,2.25-3.13,3.79c-0.62,1.54-1.03,3.26-1.21,5.16c-0.18,1.91-0.27,4.83-0.27,8.79V1786.61z"/>
		<path class="st1" d="M1178.85,1815.95c-21.53,0-37.7-6.3-48.5-18.9c-10.8-12.6-16.21-31.46-16.21-56.58
			c0-16.48,2.62-30.56,7.86-42.24c5.24-11.68,12.94-20.56,23.13-26.64c10.18-6.08,22.3-9.12,36.37-9.12
			c21.9,0,38.34,6.28,49.33,18.84c10.99,12.56,16.48,31.22,16.48,55.98c0,13.84-1.63,25.73-4.89,35.65
			c-3.26,9.93-7.89,18.07-13.9,24.45c-6.01,6.37-13.2,11.06-21.59,14.06C1198.53,1814.44,1189.17,1815.95,1178.85,1815.95z
			 M1149.07,1737.5c0,22.12,2.65,38.58,7.96,49.38c5.31,10.8,13.42,16.21,24.33,16.21c5.64,0,10.44-1.52,14.39-4.56
			c3.96-3.04,7.16-7.29,9.61-12.74c2.45-5.46,4.21-11.92,5.27-19.39c1.06-7.47,1.59-15.67,1.59-24.61c0-14.57-1.15-26.79-3.46-36.64
			c-2.31-9.85-5.79-17.29-10.44-22.3c-4.65-5.02-10.6-7.53-17.85-7.53c-10.62,0-18.51,5.07-23.68,15.22
			C1151.66,1700.68,1149.07,1716.34,1149.07,1737.5z"/>
		<path class="st1" d="M1449.47,1671.47c-3.88,1.1-6.52,2.29-7.91,3.57c-1.39,1.28-2.36,3-2.91,5.16
			c-0.55,2.16-0.82,5.99-0.82,11.48v95.03c0,4.47,0.22,8,0.66,10.6c0.44,2.6,1.34,4.58,2.69,5.93c1.35,1.36,4.12,2.58,8.29,3.68
			v7.25h-56.36v-7.25c3.22-0.88,5.46-1.65,6.7-2.31c1.24-0.66,2.21-1.52,2.91-2.58c0.7-1.06,1.21-2.67,1.54-4.83
			c0.33-2.16,0.49-5.73,0.49-10.71v-53.83c0-5.93,0.11-12.93,0.33-20.98c0.22-8.06,0.44-13.77,0.66-17.14h-2.31
			c-0.88,2.93-1.81,5.8-2.8,8.62c-0.99,2.82-2.84,7.85-5.55,15.11l-29.44,79.32h-19.34l-30.98-89.1
			c-1.83-5.05-3.44-10.07-4.83-15.05h-1.98c0.73,12.09,1.1,26.37,1.1,42.85v50.54c0,5.42,0.25,9.19,0.77,11.32
			c0.51,2.13,1.54,3.88,3.08,5.27c1.54,1.39,4.21,2.56,8.02,3.52v7.25h-41.53v-7.25c2.71-0.73,4.85-1.54,6.43-2.42
			c1.57-0.88,2.76-2.05,3.57-3.52c0.8-1.46,1.3-3.33,1.48-5.6c0.18-2.27,0.27-5.16,0.27-8.68v-95.03c0-5.56-0.24-9.37-0.71-11.43
			c-0.48-2.05-1.41-3.73-2.8-5.05c-1.39-1.32-4.14-2.56-8.24-3.74v-7.25h54.6l30.43,90.2l32.96-90.2h51.53V1671.47z"/>
		<path class="st1" d="M1590.46,1664.22v34.94h-15.05c-2.42-6.96-4.47-11.66-6.15-14.12c-1.69-2.45-3.7-4.39-6.04-5.82
			c-2.34-1.43-6.34-2.14-11.97-2.14h-23.95v52.73h14.5c3.22,0,5.75-0.46,7.58-1.37c1.83-0.92,3.35-2.43,4.56-4.56
			c1.21-2.12,2.36-5.42,3.46-9.89h12.41v44.6h-12.41c-1.03-4.25-2.16-7.49-3.41-9.72c-1.25-2.23-2.73-3.83-4.45-4.78
			c-1.72-0.95-4.3-1.43-7.75-1.43h-14.5v58.67h23.84c2.56,0,4.72-0.17,6.48-0.5c1.76-0.33,3.33-0.9,4.72-1.7
			c1.39-0.81,2.73-1.9,4.01-3.3c1.28-1.39,2.42-2.89,3.41-4.5c0.99-1.61,2.03-3.74,3.13-6.37s2.31-6.26,3.63-10.88h15.05l-2.09,40.1
			h-108v-7.25c2.71-0.73,4.85-1.52,6.43-2.36c1.57-0.84,2.75-2.01,3.52-3.52c0.77-1.5,1.26-3.41,1.48-5.71
			c0.22-2.31,0.33-5.22,0.33-8.73v-94.7c0-3.44-0.09-6.33-0.28-8.68c-0.18-2.34-0.66-4.25-1.43-5.71c-0.77-1.46-1.94-2.65-3.52-3.57
			c-1.58-0.92-3.75-1.74-6.54-2.47v-7.25H1590.46z"/>
		<path class="st1" d="M1729.14,1667.63v31.86h-14.94c-1.76-8.28-4.54-14.37-8.35-18.29c-3.81-3.92-8.79-5.88-14.94-5.88
			c-11.57,0-20.32,5.55-26.26,16.64c-5.93,11.1-8.9,27.56-8.9,49.38c0,20.29,2.71,35.65,8.13,46.09
			c5.42,10.44,13.37,15.66,23.84,15.66c5.35,0,9.7-0.9,13.07-2.69c3.37-1.79,6.06-4.49,8.07-8.08c2.01-3.59,3.75-8.64,5.22-15.16
			h15.05v33.29c-8.06,1.91-15.42,3.3-22.08,4.17c-6.67,0.88-13.59,1.32-20.76,1.32c-15.24,0-27.67-2.75-37.3-8.24
			c-9.63-5.49-16.74-13.79-21.31-24.88c-4.58-11.1-6.87-25.14-6.87-42.13c0-15.89,2.69-29.72,8.07-41.47
			c5.38-11.76,13.31-20.82,23.79-27.19c10.47-6.37,23-9.56,37.57-9.56c7.4,0,14.1,0.4,20.1,1.21
			C1716.36,1664.48,1722.62,1665.8,1729.14,1667.63z"/>
		<path class="st1" d="M1837.94,1767.71h-46.91l-3.63,10.44c-1.03,2.93-1.87,5.77-2.53,8.51c-0.66,2.75-0.99,5.66-0.99,8.73
			c0,7.18,3.81,11.02,11.43,11.54v7.25h-46.91v-7.25c2.71-0.29,5.09-1.24,7.14-2.86c2.05-1.61,3.92-3.81,5.6-6.59
			c1.68-2.78,3.48-6.77,5.38-11.97l45.81-122.06h29.33l36.26,123.05c1.61,5.49,2.97,9.39,4.06,11.7c1.1,2.31,2.53,4.17,4.29,5.6
			c1.76,1.43,4.21,2.47,7.36,3.13v7.25H1833v-7.25c3.81-0.44,6.63-1.5,8.46-3.19c1.83-1.68,2.75-4.06,2.75-7.14
			c0-2.27-0.26-4.8-0.77-7.58c-0.51-2.78-1.36-6.3-2.53-10.55L1837.94,1767.71z M1795.2,1754.86h39.55l-17.58-61.85L1795.2,1754.86z
			"/>
		<path class="st1" d="M1974.97,1814.19h-57.68v-7.25c2.71-0.73,4.85-1.52,6.43-2.36c1.57-0.84,2.75-2.01,3.52-3.52
			c0.77-1.5,1.26-3.41,1.48-5.71c0.22-2.31,0.33-5.22,0.33-8.73v-94.7c0-3.44-0.09-6.33-0.28-8.68c-0.18-2.34-0.66-4.25-1.43-5.71
			c-0.77-1.46-1.94-2.65-3.52-3.57c-1.58-0.92-3.75-1.74-6.54-2.47v-7.25h64.05c8.64,0,15.98,0.6,22.03,1.81
			c6.04,1.21,11.33,3.06,15.88,5.55c3.81,2.05,7.03,4.63,9.67,7.75c2.64,3.11,4.67,6.74,6.1,10.88c1.43,4.14,2.14,8.95,2.14,14.45
			c0,7.18-1.26,13.33-3.79,18.46c-2.53,5.13-5.93,9.39-10.22,12.8c-4.29,3.41-10.02,6.61-17.19,9.61v1.1
			c5.42,2.35,9.9,5.48,13.46,9.39c3.55,3.92,6.76,8.88,9.61,14.89l6.92,14.94c3.08,6.67,6.13,11.66,9.17,15
			c3.04,3.33,6.65,5.37,10.82,6.1v7.25h-42.3c-4.25-5.86-9.05-14.57-14.39-26.15l-8.57-18.79c-2.56-5.57-4.76-9.52-6.59-11.87
			c-1.83-2.34-3.72-3.96-5.66-4.83c-1.94-0.88-4.93-1.32-8.95-1.32h-6.37v35.38c0,5.49,0.26,9.34,0.77,11.54
			c0.51,2.2,1.5,3.96,2.97,5.27c1.46,1.32,4.17,2.49,8.13,3.52V1814.19z M1963.11,1677.3v61.08h10.88c5.86,0,10.69-0.79,14.5-2.36
			c3.81-1.57,6.83-3.77,9.06-6.59c2.23-2.82,3.77-6.13,4.61-9.94c0.84-3.81,1.26-7.98,1.26-12.52c0-9.96-2.34-17.43-7.03-22.41
			c-4.69-4.98-11.65-7.47-20.87-7.47C1969.22,1677.08,1965.09,1677.15,1963.11,1677.3z"/>
		<path class="st1" d="M2185.94,1664.22v34.94h-15.05c-2.42-6.96-4.47-11.66-6.15-14.12c-1.69-2.45-3.7-4.39-6.04-5.82
			c-2.34-1.43-6.34-2.14-11.97-2.14h-23.95v52.73h14.5c3.22,0,5.75-0.46,7.58-1.37c1.83-0.92,3.35-2.43,4.56-4.56
			c1.21-2.12,2.36-5.42,3.46-9.89h12.41v44.6h-12.41c-1.03-4.25-2.16-7.49-3.41-9.72c-1.25-2.23-2.73-3.83-4.45-4.78
			c-1.72-0.95-4.3-1.43-7.75-1.43h-14.5v58.67h23.84c2.56,0,4.72-0.17,6.48-0.5c1.76-0.33,3.33-0.9,4.72-1.7
			c1.39-0.81,2.73-1.9,4.01-3.3c1.28-1.39,2.42-2.89,3.41-4.5c0.99-1.61,2.03-3.74,3.13-6.37s2.31-6.26,3.63-10.88h15.05l-2.09,40.1
			h-108v-7.25c2.71-0.73,4.85-1.52,6.43-2.36c1.57-0.84,2.75-2.01,3.52-3.52c0.77-1.5,1.26-3.41,1.48-5.71
			c0.22-2.31,0.33-5.22,0.33-8.73v-94.7c0-3.44-0.09-6.33-0.28-8.68c-0.18-2.34-0.66-4.25-1.43-5.71c-0.77-1.46-1.94-2.65-3.52-3.57
			c-1.58-0.92-3.75-1.74-6.54-2.47v-7.25H2185.94z"/>
	</g>
	<g>
		<g class="st0">
			<path class="st1" d="M323.03,1777.16c1.83,8.72,4.89,15.22,9.17,19.5c4.29,4.29,10.56,6.43,18.84,6.43c4.32,0,8.2-0.73,11.65-2.2
				c3.44-1.46,6.21-3.83,8.29-7.09c2.09-3.26,3.13-7.34,3.13-12.25c0-4.54-0.84-8.48-2.53-11.81c-1.69-3.33-4.39-6.5-8.13-9.5
				c-3.74-3-8.94-6.19-15.6-9.56c-5.71-2.86-10.88-5.82-15.49-8.9s-8.55-6.46-11.81-10.16c-3.26-3.7-5.79-7.75-7.58-12.14
				c-1.8-4.39-2.69-9.34-2.69-14.83c0-9.01,2.23-16.66,6.7-22.96c4.47-6.3,10.93-11.08,19.39-14.34c8.46-3.26,18.25-4.89,29.39-4.89
				c6.52,0,12.74,0.35,18.68,1.04c5.93,0.7,12.71,1.92,20.32,3.68v31.86h-15.05c-1.39-5.79-3.17-10.38-5.33-13.79
				c-2.16-3.41-4.85-5.91-8.08-7.53c-3.22-1.61-7.29-2.42-12.2-2.42c-4.17,0-7.91,0.73-11.21,2.2c-3.3,1.47-5.9,3.64-7.8,6.54
				c-1.91,2.89-2.86,6.39-2.86,10.49c0,4.25,0.82,7.93,2.47,11.04c1.65,3.11,4.41,6.15,8.29,9.12c3.88,2.97,9.52,6.36,16.92,10.16
				c9.01,4.69,16.09,9.28,21.26,13.79c5.16,4.5,8.97,9.41,11.43,14.72c2.45,5.31,3.68,11.48,3.68,18.51
				c0,9.01-2.09,16.83-6.26,23.46c-4.17,6.63-10.25,11.72-18.24,15.27c-7.98,3.55-17.21,5.33-27.69,5.33
				c-7.47,0-15.25-0.42-23.35-1.26c-8.09-0.84-15.69-2.07-22.8-3.68v-33.84H323.03z"/>
			<path class="st1" d="M463.91,1814.19v-7.25c3.08-0.51,5.51-1.19,7.31-2.03c1.79-0.84,3.13-2.03,4.01-3.57
				c0.88-1.54,1.43-3.5,1.65-5.88c0.22-2.38,0.33-5.33,0.33-8.84v-109.53h-8.9c-4.39,0-7.76,0.51-10.11,1.54
				c-2.34,1.03-4.38,2.64-6.1,4.83c-1.72,2.2-3.21,5.15-4.45,8.84c-1.25,3.7-2.27,7.2-3.08,10.49h-15.05v-38.56h129.31v38.56h-15.05
				c-1.39-4.98-2.49-8.64-3.3-10.99c-0.81-2.34-1.7-4.34-2.69-5.99c-0.99-1.65-2.03-3.02-3.13-4.12s-2.27-1.98-3.52-2.64
				c-1.25-0.66-2.8-1.15-4.67-1.48c-1.87-0.33-4.3-0.49-7.31-0.49h-7.91v109.53c0,3.88,0.11,6.83,0.33,8.84
				c0.22,2.01,0.62,3.64,1.21,4.89c0.58,1.25,1.3,2.25,2.14,3.02c0.84,0.77,2.01,1.47,3.52,2.09c1.5,0.62,3.53,1.12,6.1,1.48v7.25
				H463.91z"/>
			<path class="st1" d="M640.49,1767.71h-46.91l-3.63,10.44c-1.03,2.93-1.87,5.77-2.53,8.51c-0.66,2.75-0.99,5.66-0.99,8.73
				c0,7.18,3.81,11.02,11.43,11.54v7.25h-46.91v-7.25c2.71-0.29,5.09-1.24,7.14-2.86c2.05-1.61,3.92-3.81,5.6-6.59
				c1.68-2.78,3.48-6.77,5.38-11.97l45.81-122.06h29.33l36.26,123.05c1.61,5.49,2.97,9.39,4.06,11.7c1.1,2.31,2.53,4.17,4.29,5.6
				c1.76,1.43,4.21,2.47,7.36,3.13v7.25h-60.64v-7.25c3.81-0.44,6.63-1.5,8.46-3.19c1.83-1.68,2.75-4.06,2.75-7.14
				c0-2.27-0.26-4.8-0.77-7.58c-0.51-2.78-1.36-6.3-2.53-10.55L640.49,1767.71z M597.76,1754.86h39.55l-17.58-61.85L597.76,1754.86z
				"/>
			<path class="st1" d="M777.53,1814.19h-57.68v-7.25c2.71-0.73,4.85-1.52,6.43-2.36c1.57-0.84,2.75-2.01,3.52-3.52
				c0.77-1.5,1.26-3.41,1.48-5.71c0.22-2.31,0.33-5.22,0.33-8.73v-94.7c0-3.44-0.09-6.33-0.28-8.68c-0.18-2.34-0.66-4.25-1.43-5.71
				c-0.77-1.46-1.94-2.65-3.52-3.57c-1.58-0.92-3.75-1.74-6.54-2.47v-7.25h64.05c8.64,0,15.98,0.6,22.03,1.81
				c6.04,1.21,11.33,3.06,15.88,5.55c3.81,2.05,7.03,4.63,9.67,7.75c2.64,3.11,4.67,6.74,6.1,10.88c1.43,4.14,2.14,8.95,2.14,14.45
				c0,7.18-1.26,13.33-3.79,18.46c-2.53,5.13-5.93,9.39-10.22,12.8c-4.29,3.41-10.02,6.61-17.19,9.61v1.1
				c5.42,2.35,9.9,5.48,13.46,9.39c3.55,3.92,6.76,8.88,9.61,14.89l6.92,14.94c3.08,6.67,6.13,11.66,9.17,15
				c3.04,3.33,6.65,5.37,10.82,6.1v7.25h-42.3c-4.25-5.86-9.05-14.57-14.39-26.15l-8.57-18.79c-2.56-5.57-4.76-9.52-6.59-11.87
				c-1.83-2.34-3.72-3.96-5.66-4.83c-1.94-0.88-4.93-1.32-8.95-1.32h-6.37v35.38c0,5.49,0.26,9.34,0.77,11.54
				c0.51,2.2,1.5,3.96,2.97,5.27c1.46,1.32,4.17,2.49,8.13,3.52V1814.19z M765.66,1677.3v61.08h10.88c5.86,0,10.69-0.79,14.5-2.36
				c3.81-1.57,6.83-3.77,9.06-6.59c2.23-2.82,3.77-6.13,4.61-9.94c0.84-3.81,1.26-7.98,1.26-12.52c0-9.96-2.34-17.43-7.03-22.41
				c-4.69-4.98-11.65-7.47-20.87-7.47C771.78,1677.08,767.64,1677.15,765.66,1677.3z"/>
			<path class="st1" d="M1069.39,1786.61c0,5.64,0.24,9.5,0.71,11.59c0.48,2.09,1.45,3.83,2.91,5.22c1.46,1.39,4.14,2.56,8.02,3.52
				v7.25h-57.35v-7.25c4.25-1.1,6.99-2.2,8.24-3.3c1.24-1.1,2.12-2.65,2.64-4.67c0.51-2.01,0.77-6.13,0.77-12.36v-44.05h-49.66
				v44.05c0,2.57,0.07,4.94,0.22,7.14c0.15,2.2,0.44,3.99,0.88,5.38c0.44,1.39,1.08,2.56,1.92,3.52c0.84,0.95,2,1.78,3.46,2.47
				c1.46,0.7,3.26,1.3,5.38,1.81v7.25h-57.68v-7.25c2.71-0.73,4.85-1.52,6.43-2.36c1.57-0.84,2.75-2.01,3.52-3.52
				c0.77-1.5,1.26-3.41,1.48-5.71c0.22-2.31,0.33-5.22,0.33-8.73v-94.7c0-3.44-0.09-6.33-0.28-8.68c-0.18-2.34-0.66-4.25-1.43-5.71
				c-0.77-1.46-1.94-2.65-3.52-3.57c-1.58-0.92-3.75-1.74-6.54-2.47v-7.25h57.68v7.25c-3.88,1.1-6.54,2.31-7.96,3.63
				c-1.43,1.32-2.44,3.06-3.02,5.22c-0.59,2.16-0.88,6.06-0.88,11.7v36.69h49.66v-36.69c0-5.57-0.24-9.43-0.71-11.59
				c-0.48-2.16-1.43-3.92-2.86-5.27c-1.43-1.35-4.12-2.58-8.07-3.68v-7.25h57.35v7.25c-3.22,0.88-5.57,1.81-7.03,2.8
				c-1.47,0.99-2.51,2.25-3.13,3.79c-0.62,1.54-1.03,3.26-1.21,5.16c-0.18,1.91-0.27,4.83-0.27,8.79V1786.61z"/>
			<path class="st1" d="M1178.85,1815.95c-21.53,0-37.7-6.3-48.5-18.9c-10.8-12.6-16.21-31.46-16.21-56.58
				c0-16.48,2.62-30.56,7.86-42.24c5.24-11.68,12.94-20.56,23.13-26.64c10.18-6.08,22.3-9.12,36.37-9.12
				c21.9,0,38.34,6.28,49.33,18.84c10.99,12.56,16.48,31.22,16.48,55.98c0,13.84-1.63,25.73-4.89,35.65
				c-3.26,9.93-7.89,18.07-13.9,24.45c-6.01,6.37-13.2,11.06-21.59,14.06C1198.53,1814.44,1189.17,1815.95,1178.85,1815.95z
				 M1149.07,1737.5c0,22.12,2.65,38.58,7.96,49.38c5.31,10.8,13.42,16.21,24.33,16.21c5.64,0,10.44-1.52,14.39-4.56
				c3.96-3.04,7.16-7.29,9.61-12.74c2.45-5.46,4.21-11.92,5.27-19.39c1.06-7.47,1.59-15.67,1.59-24.61
				c0-14.57-1.15-26.79-3.46-36.64c-2.31-9.85-5.79-17.29-10.44-22.3c-4.65-5.02-10.6-7.53-17.85-7.53
				c-10.62,0-18.51,5.07-23.68,15.22C1151.66,1700.68,1149.07,1716.34,1149.07,1737.5z"/>
			<path class="st1" d="M1449.47,1671.47c-3.88,1.1-6.52,2.29-7.91,3.57c-1.39,1.28-2.36,3-2.91,5.16
				c-0.55,2.16-0.82,5.99-0.82,11.48v95.03c0,4.47,0.22,8,0.66,10.6c0.44,2.6,1.34,4.58,2.69,5.93c1.35,1.36,4.12,2.58,8.29,3.68
				v7.25h-56.36v-7.25c3.22-0.88,5.46-1.65,6.7-2.31c1.24-0.66,2.21-1.52,2.91-2.58c0.7-1.06,1.21-2.67,1.54-4.83
				c0.33-2.16,0.49-5.73,0.49-10.71v-53.83c0-5.93,0.11-12.93,0.33-20.98c0.22-8.06,0.44-13.77,0.66-17.14h-2.31
				c-0.88,2.93-1.81,5.8-2.8,8.62c-0.99,2.82-2.84,7.85-5.55,15.11l-29.44,79.32h-19.34l-30.98-89.1
				c-1.83-5.05-3.44-10.07-4.83-15.05h-1.98c0.73,12.09,1.1,26.37,1.1,42.85v50.54c0,5.42,0.25,9.19,0.77,11.32
				c0.51,2.13,1.54,3.88,3.08,5.27c1.54,1.39,4.21,2.56,8.02,3.52v7.25h-41.53v-7.25c2.71-0.73,4.85-1.54,6.43-2.42
				c1.57-0.88,2.76-2.05,3.57-3.52c0.8-1.46,1.3-3.33,1.48-5.6c0.18-2.27,0.27-5.16,0.27-8.68v-95.03c0-5.56-0.24-9.37-0.71-11.43
				c-0.48-2.05-1.41-3.73-2.8-5.05c-1.39-1.32-4.14-2.56-8.24-3.74v-7.25h54.6l30.43,90.2l32.96-90.2h51.53V1671.47z"/>
			<path class="st1" d="M1590.46,1664.22v34.94h-15.05c-2.42-6.96-4.47-11.66-6.15-14.12c-1.69-2.45-3.7-4.39-6.04-5.82
				c-2.34-1.43-6.34-2.14-11.97-2.14h-23.95v52.73h14.5c3.22,0,5.75-0.46,7.58-1.37c1.83-0.92,3.35-2.43,4.56-4.56
				c1.21-2.12,2.36-5.42,3.46-9.89h12.41v44.6h-12.41c-1.03-4.25-2.16-7.49-3.41-9.72c-1.25-2.23-2.73-3.83-4.45-4.78
				c-1.72-0.95-4.3-1.43-7.75-1.43h-14.5v58.67h23.84c2.56,0,4.72-0.17,6.48-0.5c1.76-0.33,3.33-0.9,4.72-1.7
				c1.39-0.81,2.73-1.9,4.01-3.3c1.28-1.39,2.42-2.89,3.41-4.5c0.99-1.61,2.03-3.74,3.13-6.37s2.31-6.26,3.63-10.88h15.05
				l-2.09,40.1h-108v-7.25c2.71-0.73,4.85-1.52,6.43-2.36c1.57-0.84,2.75-2.01,3.52-3.52c0.77-1.5,1.26-3.41,1.48-5.71
				c0.22-2.31,0.33-5.22,0.33-8.73v-94.7c0-3.44-0.09-6.33-0.28-8.68c-0.18-2.34-0.66-4.25-1.43-5.71
				c-0.77-1.46-1.94-2.65-3.52-3.57c-1.58-0.92-3.75-1.74-6.54-2.47v-7.25H1590.46z"/>
			<path class="st1" d="M1729.14,1667.63v31.86h-14.94c-1.76-8.28-4.54-14.37-8.35-18.29c-3.81-3.92-8.79-5.88-14.94-5.88
				c-11.57,0-20.32,5.55-26.26,16.64c-5.93,11.1-8.9,27.56-8.9,49.38c0,20.29,2.71,35.65,8.13,46.09
				c5.42,10.44,13.37,15.66,23.84,15.66c5.35,0,9.7-0.9,13.07-2.69c3.37-1.79,6.06-4.49,8.07-8.08c2.01-3.59,3.75-8.64,5.22-15.16
				h15.05v33.29c-8.06,1.91-15.42,3.3-22.08,4.17c-6.67,0.88-13.59,1.32-20.76,1.32c-15.24,0-27.67-2.75-37.3-8.24
				c-9.63-5.49-16.74-13.79-21.31-24.88c-4.58-11.1-6.87-25.14-6.87-42.13c0-15.89,2.69-29.72,8.07-41.47
				c5.38-11.76,13.31-20.82,23.79-27.19c10.47-6.37,23-9.56,37.57-9.56c7.4,0,14.1,0.4,20.1,1.21
				C1716.36,1664.48,1722.62,1665.8,1729.14,1667.63z"/>
			<path class="st1" d="M1837.94,1767.71h-46.91l-3.63,10.44c-1.03,2.93-1.87,5.77-2.53,8.51c-0.66,2.75-0.99,5.66-0.99,8.73
				c0,7.18,3.81,11.02,11.43,11.54v7.25h-46.91v-7.25c2.71-0.29,5.09-1.24,7.14-2.86c2.05-1.61,3.92-3.81,5.6-6.59
				c1.68-2.78,3.48-6.77,5.38-11.97l45.81-122.06h29.33l36.26,123.05c1.61,5.49,2.97,9.39,4.06,11.7c1.1,2.31,2.53,4.17,4.29,5.6
				c1.76,1.43,4.21,2.47,7.36,3.13v7.25H1833v-7.25c3.81-0.44,6.63-1.5,8.46-3.19c1.83-1.68,2.75-4.06,2.75-7.14
				c0-2.27-0.26-4.8-0.77-7.58c-0.51-2.78-1.36-6.3-2.53-10.55L1837.94,1767.71z M1795.2,1754.86h39.55l-17.58-61.85L1795.2,1754.86
				z"/>
			<path class="st1" d="M1974.97,1814.19h-57.68v-7.25c2.71-0.73,4.85-1.52,6.43-2.36c1.57-0.84,2.75-2.01,3.52-3.52
				c0.77-1.5,1.26-3.41,1.48-5.71c0.22-2.31,0.33-5.22,0.33-8.73v-94.7c0-3.44-0.09-6.33-0.28-8.68c-0.18-2.34-0.66-4.25-1.43-5.71
				c-0.77-1.46-1.94-2.65-3.52-3.57c-1.58-0.92-3.75-1.74-6.54-2.47v-7.25h64.05c8.64,0,15.98,0.6,22.03,1.81
				c6.04,1.21,11.33,3.06,15.88,5.55c3.81,2.05,7.03,4.63,9.67,7.75c2.64,3.11,4.67,6.74,6.1,10.88c1.43,4.14,2.14,8.95,2.14,14.45
				c0,7.18-1.26,13.33-3.79,18.46c-2.53,5.13-5.93,9.39-10.22,12.8c-4.29,3.41-10.02,6.61-17.19,9.61v1.1
				c5.42,2.35,9.9,5.48,13.46,9.39c3.55,3.92,6.76,8.88,9.61,14.89l6.92,14.94c3.08,6.67,6.13,11.66,9.17,15
				c3.04,3.33,6.65,5.37,10.82,6.1v7.25h-42.3c-4.25-5.86-9.05-14.57-14.39-26.15l-8.57-18.79c-2.56-5.57-4.76-9.52-6.59-11.87
				c-1.83-2.34-3.72-3.96-5.66-4.83c-1.94-0.88-4.93-1.32-8.95-1.32h-6.37v35.38c0,5.49,0.26,9.34,0.77,11.54
				c0.51,2.2,1.5,3.96,2.97,5.27c1.46,1.32,4.17,2.49,8.13,3.52V1814.19z M1963.11,1677.3v61.08h10.88c5.86,0,10.69-0.79,14.5-2.36
				c3.81-1.57,6.83-3.77,9.06-6.59c2.23-2.82,3.77-6.13,4.61-9.94c0.84-3.81,1.26-7.98,1.26-12.52c0-9.96-2.34-17.43-7.03-22.41
				c-4.69-4.98-11.65-7.47-20.87-7.47C1969.22,1677.08,1965.09,1677.15,1963.11,1677.3z"/>
			<path class="st1" d="M2185.94,1664.22v34.94h-15.05c-2.42-6.96-4.47-11.66-6.15-14.12c-1.69-2.45-3.7-4.39-6.04-5.82
				c-2.34-1.43-6.34-2.14-11.97-2.14h-23.95v52.73h14.5c3.22,0,5.75-0.46,7.58-1.37c1.83-0.92,3.35-2.43,4.56-4.56
				c1.21-2.12,2.36-5.42,3.46-9.89h12.41v44.6h-12.41c-1.03-4.25-2.16-7.49-3.41-9.72c-1.25-2.23-2.73-3.83-4.45-4.78
				c-1.72-0.95-4.3-1.43-7.75-1.43h-14.5v58.67h23.84c2.56,0,4.72-0.17,6.48-0.5c1.76-0.33,3.33-0.9,4.72-1.7
				c1.39-0.81,2.73-1.9,4.01-3.3c1.28-1.39,2.42-2.89,3.41-4.5c0.99-1.61,2.03-3.74,3.13-6.37s2.31-6.26,3.63-10.88h15.05
				l-2.09,40.1h-108v-7.25c2.71-0.73,4.85-1.52,6.43-2.36c1.57-0.84,2.75-2.01,3.52-3.52c0.77-1.5,1.26-3.41,1.48-5.71
				c0.22-2.31,0.33-5.22,0.33-8.73v-94.7c0-3.44-0.09-6.33-0.28-8.68c-0.18-2.34-0.66-4.25-1.43-5.71
				c-0.77-1.46-1.94-2.65-3.52-3.57c-1.58-0.92-3.75-1.74-6.54-2.47v-7.25H2185.94z"/>
		</g>
	</g>
</g>
<g class="st0">
	<path class="st1" d="M864.13,2011.01c-7.47,0-14.41-1.22-20.82-3.67c-6.42-2.45-11.96-6.18-16.63-11.2l4.9-8.4
		c5.13,4.79,10.29,8.26,15.49,10.41c5.19,2.16,10.7,3.24,16.54,3.24c7.11,0,12.89-1.42,17.33-4.25c4.43-2.83,6.65-6.91,6.65-12.23
		c0-3.6-1.08-6.35-3.24-8.27c-2.16-1.91-5.25-3.48-9.28-4.7c-4.02-1.22-8.84-2.52-14.44-3.92c-6.3-1.74-11.58-3.57-15.84-5.48
		c-4.26-1.91-7.47-4.35-9.63-7.31c-2.16-2.96-3.24-6.81-3.24-11.57c0-5.92,1.49-10.82,4.46-14.71c2.98-3.89,7.06-6.84,12.25-8.88
		c5.19-2.03,11-3.05,17.41-3.05c7,0,13.18,1.11,18.55,3.32c5.36,2.22,9.74,5.31,13.13,9.28l-5.77,8.05
		c-3.27-3.73-7.15-6.5-11.64-8.31c-4.49-1.81-9.48-2.71-14.96-2.71c-3.73,0-7.29,0.49-10.67,1.48c-3.39,0.98-6.16,2.61-8.31,4.87
		c-2.16,2.26-3.24,5.36-3.24,9.3c0,3.25,0.81,5.77,2.45,7.57c1.63,1.8,4.08,3.31,7.35,4.52c3.26,1.22,7.29,2.52,12.07,3.91
		c6.88,1.86,12.89,3.74,18.03,5.66c5.13,1.91,9.1,4.38,11.9,7.39c2.8,3.01,4.2,7.25,4.2,12.69c0,8.47-3.21,15.07-9.63,19.83
		C883.08,2008.63,874.63,2011.01,864.13,2011.01z"/>
	<path class="st1" d="M982.07,2011.01c-6.54,0-12.6-1.25-18.2-3.75c-5.6-2.5-10.44-5.93-14.52-10.29
		c-4.08-4.36-7.26-9.38-9.54-15.08c-2.27-5.7-3.41-11.8-3.41-18.31c0-8.45,1.95-16.21,5.86-23.28c3.91-7.06,9.3-12.71,16.19-16.93
		c6.88-4.23,14.7-6.34,23.45-6.34c8.98,0,16.83,2.14,23.54,6.43c6.71,4.29,11.99,9.94,15.84,16.95c3.85,7.01,5.77,14.69,5.77,23.03
		c0,0.93,0,1.82,0,2.69c0,0.87-0.06,1.54-0.18,2h-78.05c0.58,6.5,2.42,12.28,5.51,17.33c3.09,5.05,7.11,9.05,12.07,12.01
		c4.96,2.96,10.35,4.44,16.19,4.44c5.95,0,11.58-1.52,16.89-4.55c5.31-3.03,9.01-7,11.11-11.9l10.33,2.8
		c-1.87,4.32-4.73,8.22-8.58,11.72s-8.37,6.21-13.56,8.14C993.59,2010.05,988.02,2011.01,982.07,2011.01z M948.47,1959.56h67.38
		c-0.47-6.58-2.25-12.35-5.34-17.32c-3.09-4.97-7.12-8.86-12.08-11.69c-4.96-2.83-10.41-4.24-16.36-4.24s-11.38,1.42-16.27,4.24
		s-8.9,6.75-11.99,11.77C950.72,1947.35,948.94,1953.09,948.47,1959.56z"/>
	<path class="st1" d="M1114.9,1928.58c-7.94,0.24-14.91,2.45-20.91,6.65c-6.01,4.2-10.24,9.98-12.69,17.33v56.7h-11.9v-90.83h11.2
		v21.53c3.15-6.42,7.32-11.61,12.51-15.58c5.19-3.96,10.7-6.18,16.54-6.65c1.17-0.11,2.19-0.17,3.06-0.17s1.6,0.06,2.19,0.17
		V1928.58z"/>
	<path class="st1" d="M1181.92,2009.26l-36.92-90.83h12.42l31.15,78.97l31.32-78.97h11.73l-36.92,90.83H1181.92z"/>
	<path class="st1" d="M1272.04,1899.01v-17.5h11.9v17.5H1272.04z M1272.04,2009.26v-91.17h11.9v91.17H1272.04z"/>
	<path class="st1" d="M1373.72,2011.01c-6.65,0-12.75-1.25-18.29-3.74c-5.54-2.49-10.39-5.95-14.53-10.36
		c-4.14-4.41-7.35-9.46-9.63-15.14c-2.27-5.68-3.41-11.72-3.41-18.1c0-8.59,1.92-16.42,5.77-23.49c3.85-7.08,9.21-12.7,16.1-16.88
		c6.88-4.17,14.81-6.26,23.8-6.26c8.51,0,16.04,1.96,22.58,5.86c6.53,3.91,11.38,9.19,14.52,15.84l-11.55,3.68
		c-2.57-4.67-6.16-8.31-10.76-10.94c-4.61-2.63-9.71-3.94-15.31-3.94c-6.07,0-11.61,1.56-16.63,4.69
		c-5.02,3.13-9.01,7.41-11.99,12.86c-2.97,5.44-4.46,11.64-4.46,18.59c0,6.84,1.51,13.03,4.55,18.59
		c3.03,5.56,7.06,9.99,12.08,13.29c5.01,3.3,10.56,4.95,16.63,4.95c3.96,0,7.79-0.7,11.46-2.1c3.67-1.4,6.88-3.29,9.63-5.69
		c2.74-2.39,4.58-4.99,5.51-7.79l11.72,3.5c-1.63,4.32-4.35,8.2-8.14,11.64c-3.79,3.44-8.23,6.13-13.3,8.05
		C1385,2010.05,1379.55,2011.01,1373.72,2011.01z"/>
	<path class="st1" d="M1492.72,2011.01c-6.54,0-12.6-1.25-18.2-3.75c-5.6-2.5-10.44-5.93-14.52-10.29
		c-4.09-4.36-7.26-9.38-9.54-15.08c-2.27-5.7-3.41-11.8-3.41-18.31c0-8.45,1.95-16.21,5.86-23.28c3.91-7.06,9.3-12.71,16.19-16.93
		c6.88-4.23,14.7-6.34,23.45-6.34c8.98,0,16.83,2.14,23.54,6.43c6.71,4.29,11.99,9.94,15.84,16.95c3.85,7.01,5.77,14.69,5.77,23.03
		c0,0.93,0,1.82,0,2.69c0,0.87-0.06,1.54-0.17,2h-78.05c0.58,6.5,2.42,12.28,5.51,17.33c3.09,5.05,7.11,9.05,12.08,12.01
		c4.96,2.96,10.35,4.44,16.19,4.44c5.95,0,11.58-1.52,16.89-4.55c5.31-3.03,9.01-7,11.11-11.9l10.32,2.8
		c-1.87,4.32-4.72,8.22-8.57,11.72c-3.85,3.5-8.37,6.21-13.56,8.14C1504.24,2010.05,1498.67,2011.01,1492.72,2011.01z
		 M1459.12,1959.56h67.38c-0.47-6.58-2.25-12.35-5.34-17.32c-3.09-4.97-7.12-8.86-12.08-11.69c-4.96-2.83-10.41-4.24-16.36-4.24
		s-11.38,1.42-16.28,4.24c-4.9,2.83-8.9,6.75-11.99,11.77C1461.36,1947.35,1459.58,1953.09,1459.12,1959.56z"/>
	<path class="st1" d="M1609.97,2011.01c-7.47,0-14.41-1.22-20.83-3.67c-6.42-2.45-11.96-6.18-16.63-11.2l4.9-8.4
		c5.13,4.79,10.29,8.26,15.49,10.41c5.19,2.16,10.7,3.24,16.54,3.24c7.11,0,12.89-1.42,17.32-4.25c4.43-2.83,6.65-6.91,6.65-12.23
		c0-3.6-1.08-6.35-3.24-8.27c-2.16-1.91-5.25-3.48-9.28-4.7c-4.02-1.22-8.84-2.52-14.44-3.92c-6.3-1.74-11.58-3.57-15.84-5.48
		c-4.26-1.91-7.47-4.35-9.63-7.31c-2.16-2.96-3.24-6.81-3.24-11.57c0-5.92,1.49-10.82,4.46-14.71c2.97-3.89,7.06-6.84,12.25-8.88
		c5.19-2.03,11-3.05,17.41-3.05c7,0,13.18,1.11,18.55,3.32c5.36,2.22,9.74,5.31,13.13,9.28l-5.78,8.05
		c-3.27-3.73-7.15-6.5-11.64-8.31c-4.49-1.81-9.48-2.71-14.96-2.71c-3.74,0-7.29,0.49-10.68,1.48c-3.38,0.98-6.15,2.61-8.31,4.87
		c-2.16,2.26-3.24,5.36-3.24,9.3c0,3.25,0.82,5.77,2.45,7.57c1.63,1.8,4.08,3.31,7.35,4.52c3.27,1.22,7.29,2.52,12.08,3.91
		c6.88,1.86,12.89,3.74,18.03,5.66c5.13,1.91,9.1,4.38,11.9,7.39c2.8,3.01,4.2,7.25,4.2,12.69c0,8.47-3.21,15.07-9.63,19.83
		C1628.92,2008.63,1620.47,2011.01,1609.97,2011.01z"/>
</g>
<linearGradient id="SVGID_1_" gradientUnits="userSpaceOnUse" x1="1249.7806" y1="1002.7916" x2="1249.7806" y2="1877.5342" gradientTransform="matrix(1 0 0 -1 0 2500)">
	<stop  offset="0" style="stop-color:#4536C4"/>
	<stop  offset="0.4212" style="stop-color:#5A46FF"/>
</linearGradient>
<path class="st2" d="M1558.3,570.76L1558.3,570.76c-85.22-85.22-196.69-128.11-308.38-128.79
	c-111.78,0.61-223.38,43.51-308.66,128.79l0,0c-171.8,171.8-171.8,450.34,0,622.14l308.52,308.52l308.53-308.53
	C1730.1,1021.11,1730.1,742.56,1558.3,570.76z M1248.36,1250.86c-201.84,0-365.46-163.62-365.46-365.46s163.62-365.46,365.46-365.46
	s365.46,163.62,365.46,365.46S1450.2,1250.86,1248.36,1250.86z"/>
<g>
	<path class="st3" d="M969,957.43V814.57c0-22.96,18.61-41.57,41.57-41.57h476.87c22.96,0,41.57,18.61,41.57,41.57v142.87
		c0,22.96-18.61,41.57-41.57,41.57h-476.87C987.61,999,969,980.39,969,957.43z"/>
	<path class="st3" d="M1320.43,1166h-142.87c-22.96,0-41.57-18.61-41.57-41.57V647.57c0-22.96,18.61-41.57,41.57-41.57h142.87
		c22.96,0,41.57,18.61,41.57,41.57v476.87C1362,1147.39,1343.39,1166,1320.43,1166z"/>
</g>
</svg>
