<?xml version="1.0" encoding="utf-8"?>
<!-- Generator: Adobe Illustrator 24.1.3, SVG Export Plug-In . SVG Version: 6.00 Build 0)  -->
<svg version="1.1" id="colour" xmlns="http://www.w3.org/2000/svg" xmlns:xlink="http://www.w3.org/1999/xlink" x="0px" y="0px"
	 viewBox="0 0 2500 2500" style="enable-background:new 0 0 2500 2500;" xml:space="preserve">
<style type="text/css">
	.st0{fill:#5A46FF;}
	.st1{fill:#48A0FF;}
</style>
<g id="icon">
	<path class="st0" d="M1343.74,597.45c56.31,97.46,119.59,231.51,148.73,302.61c7.59,18.52,31.3,23.79,46,10.22
		c83.73-77.31,317.48-285.32,554.26-401.02c10.25-5.01,4.92-20.54-6.26-18.25c-261.38,53.68-497.41,223.97-545.78,260.46
		c-5.19,3.92-12.47,3.4-17.07-1.18c-20.29-20.21-97.27-114.2-158.29-170.14C1353.53,569.32,1335.74,583.59,1343.74,597.45z"/>
	<path class="st0" d="M1904.62,1050.85c-74.47,84.4-181.42,187.04-239.55,237.29c-15.14,13.09-12.59,37.25,4.95,46.86
		c99.93,54.77,371.51,210.18,556.55,397.83c8.01,8.12,21.04-1.87,15.31-11.74c-134.06-230.71-370.61-400.29-420.6-434.53
		c-5.36-3.67-7.19-10.74-4.31-16.56c12.7-25.66,77.32-128.55,110.93-204.21C1934.4,1051.19,1915.2,1038.86,1904.62,1050.85z"/>
	<path class="st0" d="M1650.2,1738.63c-101.8-48.02-230.17-122.14-294.62-163.98c-16.78-10.9-39.28-1.72-43.63,17.81
		c-24.77,111.23-98.39,415.35-227.08,645.33c-5.57,9.95,7.66,19.68,15.54,11.43c184.24-193.02,281.23-467.43,300.18-524.98
		c2.03-6.18,8.31-9.9,14.71-8.75c28.19,5.05,145,38.45,227.02,49.66C1658.17,1767.32,1664.67,1745.46,1650.2,1738.63z"/>
	<path class="st0" d="M907.95,1699.11c13.2-111.78,42.7-257.05,61.9-331.45c5-19.38-10.85-37.79-30.75-35.71
		c-113.34,11.85-425.09,38.65-684.04-10.32c-11.21-2.12-16.23,13.52-5.91,18.36c241.54,113.38,532.56,118.18,593.14,117.87
		c6.5-0.03,12.03,4.73,12.97,11.16c4.16,28.33,9.6,149.71,25.03,231.04C883.28,1715.79,906.08,1715,907.95,1699.11z"/>
	<path class="st0" d="M725.67,988.8c111.03-18.46,258.77-30.58,335.58-32.87c20-0.59,33.28-20.94,25.73-39.48
		c-42.95-105.56-155.52-397.51-180.61-659.85c-1.09-11.35-17.5-11.82-19.28-0.56c-41.62,263.57,34.83,544.4,52,602.5
		c1.84,6.24-1.2,12.87-7.11,15.57c-26.05,11.89-141.11,50.92-214.93,88.39C702.78,969.75,709.88,991.43,725.67,988.8z"/>
	<circle class="st1" cx="1549.79" cy="618.11" r="60.76"/>
	<circle class="st1" cx="813.57" cy="806.33" r="60.76"/>
</g>
</svg>
